<?xml version="1.0" encoding="UTF-8" standalone="no"?>
<svg
   version="1.1"
   width="512"
   height="512"
   id="svg4"
   sodipodi:docname="doxygen_icon_dark.svg"
   inkscape:version="1.2.2 (b0a8486541, 2022-12-01)"
   inkscape:export-filename="doxygen_icon.png"
   inkscape:export-xdpi="48"
   inkscape:export-ydpi="48"
   xmlns:inkscape="http://www.inkscape.org/namespaces/inkscape"
   xmlns:sodipodi="http://sodipodi.sourceforge.net/DTD/sodipodi-0.dtd"
   xmlns="http://www.w3.org/2000/svg"
   xmlns:svg="http://www.w3.org/2000/svg">
  <defs
     id="defs8" />
  <sodipodi:namedview
     id="namedview6"
     pagecolor="#ffffff"
     bordercolor="#999999"
     borderopacity="1"
     inkscape:showpageshadow="0"
     inkscape:pageopacity="0"
     inkscape:pagecheckerboard="0"
     inkscape:deskcolor="#d1d1d1"
     showgrid="false"
     inkscape:zoom="1.7480469"
     inkscape:cx="247.13296"
     inkscape:cy="216.52737"
     inkscape:window-width="1912"
     inkscape:window-height="1123"
     inkscape:window-x="26"
     inkscape:window-y="23"
     inkscape:window-maximized="0"
     inkscape:current-layer="svg4" />
  <rect
     style="fill:none;stroke:none;stroke-width:4.69998;stroke-dasharray:none"
     id="rect1364"
     width="512"
     height="512"
     x="0"
     y="0" />
  <path
     d="M 373.20539,107.07301 C 322.13912,55.477663 258.58885,51.468151 240.3279,51.468151 H 81.21336 V 460.5287 h 94.22239 V 145.69054 h 64.89215 c 17.77404,0 45.70031,7.24534 65.90965,27.66326 20.53909,20.75224 30.73883,52.10602 30.31558,93.19031 -0.42481,41.07201 -18.56538,67.98457 -57.09013,84.69586 -34.21159,14.84034 -70.50451,15.06731 -70.86644,15.06731 v 94.22086 c 5.4411,0.0552 54.07081,-0.2239 105.03893,-21.43622 C 388.3509,407.99884 429.94892,347.06559 430.76938,267.5164 431.63277,183.85107 399.9416,134.0868 373.20539,107.07301 Z"
     id="path2"
     style="fill:#93a1ff;fill-opacity:1;stroke-width:0.798953" />
</svg>
